<svg version="1.1" id="Layer_1" xmlns="http://www.w3.org/2000/svg" xmlns:xlink="http://www.w3.org/1999/xlink" x="0px" y="0px"
	 width="100%" viewBox="0 0 1080 1080" enable-background="new 0 0 1080 1080" xml:space="preserve">

<path fill="#FFFFFF" opacity="1.000000" stroke="none" 
	d="
M129.000000,611.000000 
	C129.000000,512.839722 128.999847,415.179504 129.000122,317.519257 
	C129.000183,299.329803 135.867371,283.539856 146.382584,269.199310 
	C156.438293,255.485443 169.798874,245.809296 185.675323,239.987167 
	C192.402283,237.520279 199.655594,235.502655 206.749863,235.207443 
	C228.474518,234.303406 250.237930,234.052109 271.986481,234.043900 
	C470.140106,233.969131 668.293884,233.906494 866.447205,234.143311 
	C886.470764,234.167236 904.567444,241.091705 920.453857,253.808548 
	C936.016846,266.266541 945.567139,282.331512 950.565735,301.266754 
	C952.048218,306.882202 952.896912,312.841766 952.901794,318.644623 
	C953.026306,466.801422 953.053223,614.958435 952.933228,763.115234 
	C952.918091,781.802551 946.242798,798.512268 935.080811,813.320374 
	C923.468750,828.725464 908.090637,839.008362 889.494019,843.914978 
	C881.245972,846.091187 872.582153,847.825317 864.105164,847.833557 
	C648.452942,848.044739 432.800262,848.110718 217.148056,847.856812 
	C190.836472,847.825867 167.922531,837.977905 150.440399,817.784180 
	C139.521774,805.171997 132.134628,790.566711 130.016815,773.715637 
	C129.548538,769.989624 129.047760,766.232300 129.042984,762.488770 
	C128.978836,712.159241 129.000000,661.829590 129.000000,611.000000 
M165.000000,427.501221 
	C165.000000,539.164673 164.988846,650.828186 165.053268,762.491577 
	C165.055222,765.881897 165.341690,769.430054 166.348282,772.636902 
	C174.451340,798.452332 192.742889,811.774292 217.434525,811.811707 
	C432.761383,812.137878 648.088989,812.008545 863.416321,811.937378 
	C867.625916,811.935974 871.926453,811.384949 876.025452,810.416687 
	C884.215820,808.481995 891.606689,805.003479 898.237305,799.466858 
	C909.903687,789.725342 916.815186,777.420044 916.850220,762.491699 
	C917.121704,646.828918 917.000000,531.165161 917.000000,415.501678 
	C917.000000,413.736847 917.000000,411.972046 917.000000,410.285339 
	C666.023010,410.285339 415.622772,410.285339 165.000000,410.285339 
	C165.000000,415.879913 165.000000,421.190857 165.000000,427.501221 
M437.500000,270.000000 
	C366.182190,270.000000 294.864410,270.018585 223.546616,269.977814 
	C214.042130,269.972382 204.919464,270.811371 195.946869,274.803711 
	C185.544678,279.432129 177.617783,286.284424 172.020599,295.993744 
	C166.705765,305.213287 164.560257,315.090454 164.875427,325.835052 
	C165.352463,342.097870 165.000000,358.385040 165.000000,374.650635 
	C415.936127,374.650635 666.420837,374.650635 917.000000,374.650635 
	C917.000000,357.976715 917.064758,341.651581 916.954407,325.327606 
	C916.926819,321.251221 916.587463,317.139343 915.961182,313.110687 
	C912.059570,288.015259 889.993652,270.154938 865.907471,270.115356 
	C723.438599,269.881348 580.969238,270.000000 437.500000,270.000000 
z"/>
<path fill="#FFFFFF" opacity="1.000000" stroke="none" 
	d="
M703.000000,669.000000 
	C703.000000,677.663818 702.943665,685.828247 703.032654,693.991089 
	C703.060852,696.582642 702.466553,698.038208 699.458740,698.035156 
	C650.164551,697.984802 600.870300,697.999390 551.288208,697.999390 
	C551.288208,688.052246 551.288208,678.314758 551.288208,668.176331 
	C558.281372,668.176331 565.357117,668.176331 572.734436,668.176331 
	C572.838806,666.532104 572.989502,665.262085 572.989868,663.992004 
	C573.001831,615.842102 572.945374,567.691956 573.092224,519.542542 
	C573.105591,515.167297 571.944458,513.604553 567.487732,513.913879 
	C562.204224,514.280579 556.875793,514.000000 551.001648,514.000000 
	C551.001648,504.856293 550.903381,495.923706 551.135986,486.999756 
	C551.162659,485.975739 552.932251,484.842651 554.098328,484.068237 
	C554.676697,483.684143 555.720154,484.000061 556.553223,484.000061 
	C602.537231,484.000000 648.521423,484.060272 694.504944,483.903900 
	C698.952332,483.888794 700.147461,485.191589 700.095642,489.554932 
	C699.871948,508.379059 699.899963,527.208374 700.084961,546.033325 
	C700.121643,549.770142 698.673279,551.017517 695.299072,551.007263 
	C687.468506,550.983398 679.635864,550.895813 671.808228,551.049683 
	C668.552551,551.113647 667.929810,549.567871 667.960938,546.757263 
	C668.064331,537.428345 667.849365,528.093933 668.074036,518.769226 
	C668.164185,515.029358 666.934570,513.887695 663.217590,513.926880 
	C647.058350,514.097229 630.896057,514.047974 614.735413,513.965027 
	C610.866394,513.945190 608.823914,514.783569 608.894775,519.432556 
	C609.158630,536.741455 609.000000,554.056763 609.000000,571.755249 
	C610.565674,571.841858 611.994629,571.988708 613.423767,571.989807 
	C633.250244,572.004883 653.077454,572.091980 672.902466,571.920959 
	C676.776245,571.887512 678.276367,572.868469 678.084229,576.955933 
	C677.771667,583.605591 677.790161,590.289734 678.079224,596.941589 
	C678.250671,600.887085 677.022461,602.122925 673.005310,602.086060 
	C652.680725,601.899170 632.353577,602.000061 612.027283,602.000122 
	C611.214355,602.000122 610.401428,602.000183 609.294556,602.000183 
	C609.294556,623.934753 609.294556,645.668579 609.294556,667.701782 
	C629.596985,667.701782 650.000183,667.701782 670.008606,667.701782 
	C670.008606,657.047424 669.861694,646.334045 670.205078,635.636353 
	C670.245422,634.380066 672.942749,632.227905 674.477783,632.164246 
	C682.793945,631.819214 691.133301,632.091736 699.461609,631.957275 
	C702.966064,631.900757 703.035706,633.952454 703.022705,636.511963 
	C702.968689,647.174377 703.000000,657.837280 703.000000,669.000000 
z"/>
<path fill="#FFFFFF" opacity="1.000000" stroke="none" 
	d="
M400.000000,532.004639 
	C400.000000,526.240234 400.000000,520.974548 400.000000,514.973938 
	C399.048096,514.769531 397.263885,514.103210 395.462494,514.053040 
	C390.133881,513.904785 384.789124,513.809265 379.469147,514.069641 
	C376.138000,514.232605 375.053070,512.595642 375.025146,509.796661 
	C374.953644,502.631531 374.958618,495.464783 375.019135,488.299438 
	C375.048248,484.852875 377.217316,483.958160 380.303131,483.973785 
	C392.801422,484.037048 405.300232,484.000000 417.798828,484.000000 
	C434.960785,484.000000 452.122711,484.000000 469.642273,484.000000 
	C469.642273,493.804901 469.642273,503.547058 469.642273,514.000000 
	C467.353333,514.000000 464.764771,513.896118 462.187012,514.019165 
	C453.851868,514.417053 445.520660,514.898193 437.187958,515.347290 
	C436.791992,523.702026 436.078461,532.055786 436.053833,540.411621 
	C435.934479,580.906738 436.000000,621.402466 436.000000,661.897949 
	C436.000000,663.718323 436.000000,665.538635 436.000000,667.679138 
	C454.217834,667.679138 472.289612,667.679138 490.772644,667.679138 
	C490.772644,652.444336 490.772644,637.033752 490.772644,621.303101 
	C500.690491,618.770996 510.447693,620.410767 520.092346,620.189148 
	C521.037109,620.167419 522.868591,622.183411 522.875488,623.262695 
	C523.035278,648.045105 522.998718,672.828857 522.998718,698.000000 
	C521.146545,698.000000 519.690491,698.000000 518.234436,698.000000 
	C472.406219,698.000000 426.577698,697.930664 380.750153,698.103455 
	C375.988281,698.121399 374.823395,696.299255 374.950409,692.079834 
	C375.140930,685.752930 375.048035,679.415527 374.981262,673.083557 
	C374.944000,669.550232 376.015076,667.722595 380.089294,667.913208 
	C386.888428,668.231262 393.713287,668.000000 400.000000,668.000000 
	C400.000000,622.634277 400.000000,577.568787 400.000000,532.004639 
z"/>
<path fill="#FFFFFF" opacity="1.000000" stroke="none" 
	d="
M256.799744,534.703369 
	C260.708466,531.452393 264.454163,528.560059 268.019928,525.460754 
	C283.859741,511.692688 299.623779,497.837433 315.470459,484.077301 
	C319.881226,480.247314 324.481323,476.635406 329.710114,472.334930 
	C330.220215,474.868591 330.923706,476.801483 330.946991,478.742493 
	C331.062958,488.406616 330.987976,498.072968 331.005920,507.738464 
	C331.013092,511.593262 329.981903,514.401306 326.611145,517.201965 
	C315.991058,526.026062 306.040741,535.650391 295.668091,544.779663 
	C283.496735,555.491943 271.115417,565.965332 258.905212,576.633972 
	C253.935547,580.976196 249.176498,585.559509 243.686478,590.618286 
	C247.820251,594.604309 251.708420,598.603394 255.862411,602.304138 
	C263.200348,608.841187 270.729736,615.162842 278.126007,621.635193 
	C291.829315,633.626709 305.502258,645.653015 319.169861,657.685242 
	C322.498871,660.615906 325.975739,663.427856 328.946899,666.692749 
	C330.210999,668.081848 330.880157,670.486694 330.911865,672.444580 
	C331.092560,683.606995 331.025909,694.774109 330.954437,705.938965 
	C330.947937,706.955322 330.312714,707.967651 329.682007,709.831116 
	C324.804169,705.802002 320.364502,702.331482 316.143463,698.612732 
	C301.357544,685.586304 286.691345,672.423950 271.895691,659.408752 
	C256.137817,645.547058 240.303436,631.772034 224.457184,618.011353 
	C221.266800,615.240906 217.841217,612.743103 214.582123,610.049438 
	C210.770233,606.898743 208.166595,603.479919 208.841904,597.831421 
	C209.549057,591.916626 208.823990,585.843567 209.102722,579.857178 
	C209.191208,577.956787 209.968079,575.512512 211.317917,574.335815 
	C224.757019,562.620605 238.393478,551.132080 251.940125,539.539734 
	C253.580917,538.135681 255.020813,536.496826 256.799744,534.703369 
z"/>
<path fill="#FFFFFF" opacity="1.000000" stroke="none" 
	d="
M872.588684,576.133179 
	C872.931946,583.744873 872.543152,591.106140 873.146423,598.385193 
	C873.558716,603.359619 871.537109,606.497498 868.121338,609.397400 
	C854.663757,620.822449 841.155945,632.190002 827.812195,643.746826 
	C818.252930,652.025940 808.994873,660.652100 799.476196,668.979126 
	C787.404846,679.539246 775.200378,689.947144 763.065369,700.434692 
	C760.214844,702.898132 757.452942,705.465698 754.561768,707.879272 
	C753.778992,708.532593 752.672485,708.798218 751.005005,709.570496 
	C751.005005,695.737854 750.889221,682.654053 751.158813,669.578186 
	C751.190735,668.028381 753.122742,666.289307 754.527039,665.032349 
	C766.142334,654.635559 777.857971,644.350891 789.510193,633.995117 
	C804.724731,620.473328 819.797058,606.787476 835.212524,593.499268 
	C837.900818,591.182007 837.420166,589.753418 835.580444,588.124512 
	C826.021362,579.660828 816.313721,571.365112 806.701904,562.960510 
	C802.490112,559.277771 798.433350,555.417603 794.218872,551.737976 
	C781.511230,540.642883 768.759949,529.597534 756.027344,518.531006 
	C752.820801,515.744080 750.736084,512.715393 750.883911,507.973267 
	C751.241577,496.499390 751.000000,485.006775 751.000000,471.994934 
	C754.481140,474.491302 757.345520,476.219513 759.832581,478.381775 
	C776.036743,492.469971 792.123962,506.692627 808.318359,520.792114 
	C823.009460,533.582947 837.777039,546.286072 852.533020,559.002197 
	C859.086975,564.650024 865.695618,570.234497 872.588684,576.133179 
z"/>
<path fill="#FFFFFF" opacity="1.000000" stroke="none" 
	d="
M281.713867,339.900208 
	C270.353516,333.862549 266.676025,326.224091 270.005768,316.361420 
	C272.611084,308.644348 282.439453,302.099823 289.236847,304.170380 
	C301.125031,307.791656 305.627167,313.624023 304.769043,324.169678 
	C304.081329,332.621124 297.461700,340.495636 287.117706,340.010345 
	C285.458923,339.932495 283.793701,339.991852 281.713867,339.900208 
z"/>
<path fill="#FFFFFF" opacity="1.000000" stroke="none" 
	d="
M208.893921,338.406586 
	C200.727936,333.565979 197.047699,326.555237 199.155029,318.816925 
	C201.804199,309.088837 206.632980,305.511566 216.035355,304.100006 
	C224.475693,302.832855 234.921402,312.486023 234.908737,321.515808 
	C234.895447,330.992859 228.519516,339.975372 218.288101,339.935089 
	C215.248383,339.923126 212.211716,339.134796 208.893921,338.406586 
z"/>
<path fill="#FFFFFF" opacity="1.000000" stroke="none" 
	d="
M339.000000,323.770630 
	C337.436737,311.385345 352.089783,301.065277 361.800079,304.937225 
	C369.990479,308.203125 375.868896,314.163116 374.977051,324.904480 
	C374.332794,332.663605 365.926361,339.361023 357.905518,340.143555 
	C347.300690,341.178162 340.240509,331.967133 339.000000,323.770630 
z"/>
</svg>